# xmcd
#
# Track frame offsets:
#	150
#	27787
#	49782
#	83608
#	105677
#	124832
#	138658
#	162258
#	272149
#	289505
#	309122
#
# Disc length: 4381 seconds
#
# Revision: 1
# Processed by: cddbd v1.5.2PL0 Copyright (c) Steve Scherf et al.
# Submitted via: audiograbber 1.83.01
#
DISCID=8e111b0b
DTITLE=Fleetwood Mac - The Blues Years
DYEAR=1993
DGENRE=Blues
TTITLE0=Black Magic Woman
TTITLE1=Madison Blues
TTITLE2=The Green Manalishi
TTITLE3=Jumping At Shdows
TTITLE4=Red Hot Mama
TTITLE5=Oh Well
TTITLE6=Sandy Mary
TTITLE7=Rattle Snake Shake
TTITLE8=Got To Move
TTITLE9=Like it This Way
TTITLE10=Teenage Darling
EXTD=
EXTT0=
EXTT1=
EXTT2=
EXTT3=
EXTT4=
EXTT5=
EXTT6=
EXTT7=
EXTT8=
EXTT9=
EXTT10=
PLAYORDER=
